<svg width="14" height="15" viewBox="0 0 14 15" fill="none" xmlns="http://www.w3.org/2000/svg">
<path d="M10.75 12.75H12.25V2.25H10.75V12.75ZM3.25 9C3.4625 9 3.64075 8.928 3.78475 8.784C3.92875 8.64 4.0005 8.462 4 8.25C4 8.0375 3.928 7.85925 3.784 7.71525C3.64 7.57125 3.462 7.4995 3.25 7.5C3.0375 7.5 2.85925 7.572 2.71525 7.716C2.57125 7.86 2.4995 8.038 2.5 8.25C2.5 8.4625 2.572 8.64075 2.716 8.78475C2.86 8.92875 3.038 9.0005 3.25 9ZM3.25 11.25C3.4625 11.25 3.64075 11.178 3.78475 11.034C3.92875 10.89 4.0005 10.712 4 10.5C4 10.2875 3.928 10.1093 3.784 9.96525C3.64 9.82125 3.462 9.7495 3.25 9.75C3.0375 9.75 2.85925 9.822 2.71525 9.966C2.57125 10.11 2.4995 10.288 2.5 10.5C2.5 10.7125 2.572 10.8907 2.716 11.0347C2.86 11.1787 3.038 11.2505 3.25 11.25ZM3.25 6.75H7.75C7.9625 6.75 8.14075 6.678 8.28475 6.534C8.42875 6.39 8.5005 6.212 8.5 6V4.5C8.5 4.2875 8.428 4.10925 8.284 3.96525C8.14 3.82125 7.962 3.7495 7.75 3.75H3.25C3.0375 3.75 2.85925 3.822 2.71525 3.966C2.57125 4.11 2.4995 4.288 2.5 4.5V6C2.5 6.2125 2.572 6.39075 2.716 6.53475C2.86 6.67875 3.038 6.7505 3.25 6.75ZM5.5 9C5.7125 9 5.89075 8.928 6.03475 8.784C6.17875 8.64 6.2505 8.462 6.25 8.25C6.25 8.0375 6.178 7.85925 6.034 7.71525C5.89 7.57125 5.712 7.4995 5.5 7.5C5.2875 7.5 5.10925 7.572 4.96525 7.716C4.82125 7.86 4.7495 8.038 4.75 8.25C4.75 8.4625 4.822 8.64075 4.966 8.78475C5.11 8.92875 5.288 9.0005 5.5 9ZM5.5 11.25C5.7125 11.25 5.89075 11.178 6.03475 11.034C6.17875 10.89 6.2505 10.712 6.25 10.5C6.25 10.2875 6.178 10.1093 6.034 9.96525C5.89 9.82125 5.712 9.7495 5.5 9.75C5.2875 9.75 5.10925 9.822 4.96525 9.966C4.82125 10.11 4.7495 10.288 4.75 10.5C4.75 10.7125 4.822 10.8907 4.966 11.0347C5.11 11.1787 5.288 11.2505 5.5 11.25ZM7.75 9C7.9625 9 8.14075 8.928 8.28475 8.784C8.42875 8.64 8.5005 8.462 8.5 8.25C8.5 8.0375 8.428 7.85925 8.284 7.71525C8.14 7.57125 7.962 7.4995 7.75 7.5C7.5375 7.5 7.35925 7.572 7.21525 7.716C7.07125 7.86 6.9995 8.038 7 8.25C7 8.4625 7.072 8.64075 7.216 8.78475C7.36 8.92875 7.538 9.0005 7.75 9ZM7.75 11.25C7.9625 11.25 8.14075 11.178 8.28475 11.034C8.42875 10.89 8.5005 10.712 8.5 10.5C8.5 10.2875 8.428 10.1093 8.284 9.96525C8.14 9.82125 7.962 9.7495 7.75 9.75C7.5375 9.75 7.35925 9.822 7.21525 9.966C7.07125 10.11 6.9995 10.288 7 10.5C7 10.7125 7.072 10.8907 7.216 11.0347C7.36 11.1787 7.538 11.2505 7.75 11.25ZM10.75 14.25C10.4625 14.25 10.2095 14.1813 9.991 14.0438C9.7725 13.9062 9.59425 13.725 9.45625 13.5H1.75C1.3375 13.5 0.984251 13.353 0.690251 13.059C0.396251 12.765 0.249501 12.412 0.250001 12V3C0.250001 2.5875 0.397001 2.23425 0.691001 1.94025C0.985001 1.64625 1.338 1.4995 1.75 1.5H9.45625C9.59375 1.275 9.772 1.09375 9.991 0.95625C10.21 0.81875 10.463 0.75 10.75 0.75H12.25C12.6625 0.75 13.0158 0.897 13.3098 1.191C13.6038 1.485 13.7505 1.838 13.75 2.25V12.75C13.75 13.1625 13.603 13.5157 13.309 13.8097C13.015 14.1038 12.662 14.2505 12.25 14.25H10.75Z" fill="#666666"/>
</svg>
